<svg xmlns="http://www.w3.org/2000/svg" version="1.1" xmlns:xlink="http://www.w3.org/1999/xlink" xmlns:svgjs="http://svgjs.dev/svgjs" width="1500" height="492" viewBox="0 0 1500 492"><g transform="matrix(1,0,0,1,-0.9090909090909918,0.1570100284930902)"><svg viewBox="0 0 396 130" data-background-color="#efefef" preserveAspectRatio="xMidYMid meet" height="492" width="1500" xmlns="http://www.w3.org/2000/svg" xmlns:xlink="http://www.w3.org/1999/xlink"><g id="tight-bounds" transform="matrix(1,0,0,1,0.2400000000000091,-0.04118620970956499)"><svg viewBox="0 0 395.52 130.082672599352" height="130.082672599352" width="395.52"><g><svg viewBox="0 0 603.7387747018427 198.56379794972125" height="130.082672599352" width="395.52"><g transform="matrix(1,0,0,1,0,27.442608833861627)"><svg viewBox="0 0 395.52000000000004 143.678580281998" height="143.678580281998" width="395.52000000000004"><g id="textblocktransform"><svg viewBox="0 0 395.52000000000004 143.678580281998" height="143.678580281998" width="395.52000000000004" id="textblock"><g><svg viewBox="0 0 395.52000000000004 97.24368794326243" height="97.24368794326243" width="395.52000000000004"><g transform="matrix(1,0,0,1,0,0)"><svg width="395.52000000000004" viewBox="2.45 -41 169.19 41.6" height="97.24368794326243" data-palette-color="#090909"><path d="M13.2 0.55L13.2 0.55Q9.2 0.55 6.85-1.15 4.5-2.85 3.48-5.98 2.45-9.1 2.45-13.35L2.45-13.35 2.45-26.95Q2.45-31.3 3.45-34.45 4.45-37.6 6.98-39.28 9.5-40.95 13.95-40.95L13.95-40.95Q18.1-40.95 20.55-39.55 23-38.15 24.08-35.52 25.15-32.9 25.15-29.15L25.15-29.15 25.15-27.05 18.1-27.05 18.1-29.35Q18.1-31.3 17.82-32.7 17.55-34.1 16.73-34.83 15.9-35.55 14.05-35.55L14.05-35.55Q12.1-35.55 11.23-34.6 10.35-33.65 10.13-32.1 9.9-30.55 9.9-28.7L9.9-28.7 9.9-11.75Q9.9-9.65 10.25-8.1 10.6-6.55 11.55-5.73 12.5-4.9 14.25-4.9L14.25-4.9Q16.05-4.9 17-5.8 17.95-6.7 18.32-8.3 18.7-9.9 18.7-12.1L18.7-12.1 18.7-15.9 14.35-15.9 14.35-20.55 25.35-20.55 25.35 0 20.6 0 20.05-4Q19.25-2 17.63-0.73 16 0.55 13.2 0.55ZM37.5 0L30.7 0 30.7-28.9 37.5-28.9 37.5-24.45Q39-27 40.5-28.13 42-29.25 43.8-29.25L43.8-29.25Q44.1-29.25 44.32-29.23 44.55-29.2 44.85-29.15L44.85-29.15 44.85-22.1Q44.25-22.35 43.52-22.53 42.8-22.7 42.05-22.7L42.05-22.7Q40.7-22.7 39.6-22.05 38.5-21.4 37.5-19.9L37.5-19.9 37.5 0ZM56.95 0.45L56.95 0.45Q53.8 0.45 51.75-0.73 49.7-1.9 48.67-4.15 47.65-6.4 47.65-9.6L47.65-9.6 47.65-19.3Q47.65-22.5 48.67-24.75 49.7-27 51.75-28.18 53.8-29.35 56.95-29.35L56.95-29.35Q60.1-29.35 62.17-28.18 64.25-27 65.27-24.75 66.3-22.5 66.3-19.3L66.3-19.3 66.3-9.6Q66.3-6.4 65.27-4.15 64.25-1.9 62.17-0.73 60.1 0.45 56.95 0.45ZM57-4.25L57-4.25Q58.15-4.25 58.7-4.9 59.25-5.55 59.4-6.68 59.55-7.8 59.55-9.15L59.55-9.15 59.55-19.75Q59.55-21.1 59.4-22.2 59.25-23.3 58.7-23.98 58.15-24.65 57-24.65L57-24.65Q55.85-24.65 55.3-23.98 54.75-23.3 54.57-22.2 54.4-21.1 54.4-19.75L54.4-19.75 54.4-9.15Q54.4-7.8 54.57-6.68 54.75-5.55 55.3-4.9 55.85-4.25 57-4.25ZM79.64 0L73.74 0 69.29-28.9 74.94-28.9 77.49-10.15 80.49-28.9 85.54-28.9 88.39-9.95 91.14-28.9 96.49-28.9 91.94 0 86.19 0 82.99-18.25 79.64 0ZM110.24 0.6L110.24 0.6Q106.44 0.6 104.12-0.83 101.79-2.25 100.74-4.88 99.69-7.5 99.69-11L99.69-11 99.69-12.4 106.54-12.4Q106.54-12.25 106.54-11.9 106.54-11.55 106.54-11.2L106.54-11.2Q106.59-9.3 106.89-7.95 107.19-6.6 108.02-5.9 108.84-5.2 110.29-5.2L110.29-5.2Q111.84-5.2 112.62-5.95 113.39-6.7 113.67-8.15 113.94-9.6 113.94-11.6L113.94-11.6Q113.94-14.7 112.97-16.48 111.99-18.25 109.19-18.4L109.19-18.4Q109.09-18.4 108.72-18.4 108.34-18.4 108.04-18.4L108.04-18.4 108.04-23.95Q108.29-23.95 108.57-23.95 108.84-23.95 109.09-23.95L109.09-23.95Q111.84-24 112.89-25.43 113.94-26.85 113.94-30L113.94-30Q113.94-32.55 113.17-34 112.39-35.45 110.19-35.45L110.19-35.45Q108.04-35.45 107.32-33.85 106.59-32.25 106.54-29.7L106.54-29.7Q106.54-29.35 106.54-28.98 106.54-28.6 106.54-28.2L106.54-28.2 99.69-28.2 99.69-30.15Q99.69-33.6 100.92-36.02 102.14-38.45 104.49-39.73 106.84-41 110.19-41L110.19-41Q113.64-41 115.99-39.75 118.34-38.5 119.57-36.13 120.79-33.75 120.79-30.3L120.79-30.3Q120.79-26.7 119.29-24.4 117.79-22.1 115.44-21.4L115.44-21.4Q117.04-20.9 118.24-19.68 119.44-18.45 120.12-16.48 120.79-14.5 120.79-11.7L120.79-11.7Q120.79-8.05 119.77-5.28 118.74-2.5 116.42-0.95 114.09 0.6 110.24 0.6ZM135.89 0.55L135.89 0.55Q132.14 0.55 129.79-1.2 127.44-2.95 126.36-5.98 125.29-9 125.29-12.75L125.29-12.75 125.29-26.95Q125.29-30.9 126.19-34.08 127.09-37.25 129.39-39.1 131.69-40.95 135.84-40.95L135.84-40.95Q139.39-40.95 141.61-39.78 143.84-38.6 144.89-36.35 145.94-34.1 145.94-30.8L145.94-30.8Q145.94-30.65 145.96-30.48 145.99-30.3 145.99-30.15L145.99-30.15 139.34-30.15Q139.34-32.85 138.69-34.2 138.04-35.55 135.89-35.55L135.89-35.55Q134.59-35.55 133.79-34.75 132.99-33.95 132.61-32.13 132.24-30.3 132.24-27.25L132.24-27.25 132.24-22.4Q132.94-23.55 134.36-24.23 135.79-24.9 137.69-24.9L137.69-24.9Q140.99-24.95 142.89-23.45 144.79-21.95 145.61-19.3 146.44-16.65 146.44-13.25L146.44-13.25Q146.44-9.3 145.44-6.18 144.44-3.05 142.14-1.25 139.84 0.55 135.89 0.55ZM135.94-4.8L135.94-4.8Q137.39-4.8 138.14-5.7 138.89-6.6 139.19-8.2 139.49-9.8 139.49-11.95L139.49-11.95Q139.49-14.15 139.31-15.88 139.14-17.6 138.39-18.63 137.64-19.65 135.89-19.65L135.89-19.65Q135.04-19.65 134.31-19.33 133.59-19 133.06-18.5 132.54-18 132.24-17.5L132.24-17.5 132.24-11.15Q132.24-9.45 132.56-8 132.89-6.55 133.71-5.68 134.54-4.8 135.94-4.8ZM161.03 0.6L161.03 0.6Q156.99 0.6 154.76-0.9 152.53-2.4 151.69-5.15 150.84-7.9 150.84-11.6L150.84-11.6 157.59-11.6Q157.59-9.55 157.86-7.98 158.14-6.4 158.96-5.53 159.78-4.65 161.39-4.7L161.39-4.7Q163.14-4.7 163.86-5.83 164.59-6.95 164.78-8.97 164.99-11 164.99-13.7L164.99-13.7Q164.99-16.05 164.71-17.8 164.44-19.55 163.64-20.53 162.84-21.5 161.14-21.5L161.14-21.5Q159.69-21.5 158.74-20.53 157.78-19.55 157.34-17.95L157.34-17.95 151.39-17.95 151.78-40.5 169.99-40.5 169.99-34.3 157.59-34.3 157.19-24.55Q157.94-25.45 159.36-26 160.78-26.55 162.53-26.65L162.53-26.65Q165.74-26.8 167.74-25.3 169.74-23.8 170.69-20.95 171.64-18.1 171.64-14.15L171.64-14.15Q171.64-10.95 171.21-8.25 170.79-5.55 169.64-3.58 168.49-1.6 166.41-0.5 164.34 0.6 161.03 0.6Z" opacity="1" transform="matrix(1,0,0,1,0,0)" fill="#090909" class="wordmark-text-0" data-fill-palette-color="primary" id="text-0"></path></svg></g></svg></g><g transform="matrix(1,0,0,1,0,120.20058881815605)"><svg viewBox="0 0 232.20979200000002 23.477991463841924" height="23.477991463841924" width="232.20979200000002"><g transform="matrix(1,0,0,1,0,0)"><svg width="232.20979200000002" viewBox="0.35 -36.83 368.13 37.23" height="23.477991463841924" data-palette-color="#d94e28"><path d="M8.55 0L0.35-25.33 3.85-25.33Q4.4-25.33 4.75-25.05 5.1-24.78 5.23-24.4L5.23-24.4 10.08-8.1Q10.28-7.2 10.45-6.36 10.63-5.53 10.75-4.67L10.75-4.67Q10.95-5.53 11.2-6.36 11.45-7.2 11.73-8.1L11.73-8.1 17.07-24.5Q17.2-24.88 17.51-25.13 17.82-25.38 18.3-25.38L18.3-25.38 20.23-25.38Q20.73-25.38 21.05-25.13 21.38-24.88 21.5-24.5L21.5-24.5 26.73-8.1Q27-7.23 27.21-6.38 27.43-5.53 27.63-4.7L27.63-4.7Q27.75-5.53 27.95-6.43 28.15-7.33 28.38-8.1L28.38-8.1 33.33-24.4Q33.45-24.8 33.8-25.06 34.15-25.33 34.63-25.33L34.63-25.33 37.98-25.33 29.78 0 26.25 0Q25.6 0 25.35-0.85L25.35-0.85 19.75-18.03Q19.55-18.6 19.43-19.19 19.3-19.78 19.18-20.35L19.18-20.35Q19.05-19.78 18.93-19.18 18.8-18.57 18.6-18L18.6-18 12.93-0.85Q12.65 0 11.9 0L11.9 0 8.55 0ZM46.4 0L41.95 0 41.95-36.83 46.4-36.83 46.4-21.93Q48.02-23.65 50-24.69 51.97-25.73 54.55-25.73L54.55-25.73Q56.62-25.73 58.21-25.04 59.8-24.35 60.86-23.09 61.92-21.83 62.47-20.05 63.02-18.28 63.02-16.13L63.02-16.13 63.02 0 58.57 0 58.57-16.13Q58.57-19 57.26-20.59 55.95-22.18 53.25-22.18L53.25-22.18Q51.27-22.18 49.56-21.23 47.85-20.28 46.4-18.65L46.4-18.65 46.4 0ZM88.35-16.2L88.35 0 86.37 0Q85.72 0 85.32-0.2 84.92-0.4 84.8-1.05L84.8-1.05 84.3-3.4Q83.3-2.5 82.35-1.79 81.4-1.07 80.35-0.59 79.3-0.1 78.11 0.15 76.92 0.4 75.47 0.4L75.47 0.4Q74 0.4 72.71-0.01 71.42-0.43 70.47-1.25 69.52-2.08 68.96-3.34 68.4-4.6 68.4-6.33L68.4-6.33Q68.4-7.83 69.22-9.21 70.05-10.6 71.88-11.68 73.72-12.75 76.7-13.44 79.67-14.13 83.97-14.23L83.97-14.23 83.97-16.2Q83.97-19.15 82.71-20.66 81.45-22.18 78.97-22.18L78.97-22.18Q77.35-22.18 76.23-21.76 75.12-21.35 74.31-20.84 73.5-20.33 72.91-19.91 72.32-19.5 71.75-19.5L71.75-19.5Q71.3-19.5 70.96-19.74 70.62-19.98 70.42-20.33L70.42-20.33 69.62-21.75Q71.72-23.78 74.15-24.78 76.57-25.78 79.52-25.78L79.52-25.78Q81.65-25.78 83.3-25.08 84.95-24.38 86.07-23.13 87.2-21.88 87.77-20.1 88.35-18.32 88.35-16.2L88.35-16.2ZM76.8-2.73L76.8-2.73Q77.97-2.73 78.95-2.96 79.92-3.2 80.78-3.64 81.65-4.08 82.43-4.7 83.22-5.33 83.97-6.13L83.97-6.13 83.97-11.4Q80.9-11.3 78.75-10.91 76.6-10.53 75.25-9.9 73.9-9.28 73.28-8.43 72.67-7.58 72.67-6.53L72.67-6.53Q72.67-5.53 73-4.8 73.32-4.08 73.87-3.61 74.42-3.15 75.17-2.94 75.92-2.73 76.8-2.73ZM102.77 0.4L102.77 0.4Q99.77 0.4 98.16-1.28 96.54-2.95 96.54-6.1L96.54-6.1 96.54-21.6 93.49-21.6Q93.09-21.6 92.82-21.84 92.54-22.08 92.54-22.58L92.54-22.58 92.54-24.35 96.69-24.88 97.72-32.7Q97.77-33.08 98.04-33.31 98.32-33.55 98.74-33.55L98.74-33.55 100.99-33.55 100.99-24.83 108.24-24.83 108.24-21.6 100.99-21.6 100.99-6.4Q100.99-4.8 101.77-4.03 102.54-3.25 103.77-3.25L103.77-3.25Q104.47-3.25 104.98-3.44 105.49-3.63 105.87-3.85 106.24-4.08 106.51-4.26 106.77-4.45 106.97-4.45L106.97-4.45Q107.32-4.45 107.59-4.03L107.59-4.03 108.89-1.9Q107.74-0.83 106.12-0.21 104.49 0.4 102.77 0.4ZM123.89-25.33L128.34-25.33 128.34 0 123.89 0 123.89-25.33ZM129.34-33.27L129.34-33.27Q129.34-32.63 129.08-32.06 128.81-31.5 128.38-31.06 127.94-30.63 127.36-30.38 126.79-30.13 126.14-30.13L126.14-30.13Q125.49-30.13 124.93-30.38 124.36-30.63 123.93-31.06 123.49-31.5 123.24-32.06 122.99-32.63 122.99-33.27L122.99-33.27Q122.99-33.93 123.24-34.51 123.49-35.1 123.93-35.54 124.36-35.98 124.93-36.23 125.49-36.48 126.14-36.48L126.14-36.48Q126.79-36.48 127.36-36.23 127.94-35.98 128.38-35.54 128.81-35.1 129.08-34.51 129.34-33.93 129.34-33.27ZM151.69-22.78L150.69-21.15Q150.39-20.6 149.76-20.6L149.76-20.6Q149.39-20.6 148.91-20.88 148.44-21.15 147.75-21.49 147.06-21.83 146.11-22.11 145.16-22.4 143.86-22.4L143.86-22.4Q142.74-22.4 141.84-22.11 140.94-21.83 140.3-21.33 139.66-20.83 139.32-20.16 138.99-19.5 138.99-18.73L138.99-18.73Q138.99-17.75 139.55-17.1 140.11-16.45 141.04-15.98 141.96-15.5 143.14-15.14 144.31-14.78 145.55-14.36 146.79-13.95 147.96-13.45 149.14-12.95 150.06-12.2 150.99-11.45 151.55-10.36 152.11-9.28 152.11-7.75L152.11-7.75Q152.11-6 151.49-4.51 150.86-3.03 149.64-1.94 148.41-0.85 146.64-0.23 144.86 0.4 142.54 0.4L142.54 0.4Q139.89 0.4 137.74-0.46 135.59-1.33 134.09-2.68L134.09-2.68 135.14-4.38Q135.34-4.7 135.61-4.88 135.89-5.05 136.34-5.05L136.34-5.05Q136.79-5.05 137.29-4.7 137.79-4.35 138.5-3.93 139.21-3.5 140.22-3.15 141.24-2.8 142.76-2.8L142.76-2.8Q144.06-2.8 145.04-3.14 146.01-3.48 146.66-4.05 147.31-4.63 147.62-5.38 147.94-6.13 147.94-6.98L147.94-6.98Q147.94-8.03 147.37-8.71 146.81-9.4 145.89-9.89 144.96-10.38 143.77-10.74 142.59-11.1 141.35-11.5 140.11-11.9 138.92-12.41 137.74-12.93 136.81-13.7 135.89-14.48 135.32-15.61 134.76-16.75 134.76-18.38L134.76-18.38Q134.76-19.83 135.36-21.16 135.96-22.5 137.11-23.51 138.26-24.53 139.94-25.13 141.61-25.73 143.76-25.73L143.76-25.73Q146.26-25.73 148.25-24.94 150.24-24.15 151.69-22.78L151.69-22.78ZM183.03-22.78L182.03-21.15Q181.73-20.6 181.11-20.6L181.11-20.6Q180.73-20.6 180.26-20.88 179.78-21.15 179.09-21.49 178.41-21.83 177.46-22.11 176.51-22.4 175.21-22.4L175.21-22.4Q174.08-22.4 173.18-22.11 172.28-21.83 171.64-21.33 171.01-20.83 170.67-20.16 170.33-19.5 170.33-18.73L170.33-18.73Q170.33-17.75 170.89-17.1 171.46-16.45 172.38-15.98 173.31-15.5 174.48-15.14 175.66-14.78 176.89-14.36 178.13-13.95 179.31-13.45 180.48-12.95 181.41-12.2 182.33-11.45 182.89-10.36 183.46-9.28 183.46-7.75L183.46-7.75Q183.46-6 182.83-4.51 182.21-3.03 180.98-1.94 179.76-0.85 177.98-0.23 176.21 0.4 173.88 0.4L173.88 0.4Q171.23 0.4 169.08-0.46 166.93-1.33 165.43-2.68L165.43-2.68 166.48-4.38Q166.68-4.7 166.96-4.88 167.23-5.05 167.68-5.05L167.68-5.05Q168.13-5.05 168.63-4.7 169.13-4.35 169.84-3.93 170.56-3.5 171.57-3.15 172.58-2.8 174.11-2.8L174.11-2.8Q175.41-2.8 176.38-3.14 177.36-3.48 178.01-4.05 178.66-4.63 178.97-5.38 179.28-6.13 179.28-6.98L179.28-6.98Q179.28-8.03 178.72-8.71 178.16-9.4 177.23-9.89 176.31-10.38 175.12-10.74 173.93-11.1 172.69-11.5 171.46-11.9 170.27-12.41 169.08-12.93 168.16-13.7 167.23-14.48 166.67-15.61 166.11-16.75 166.11-18.38L166.11-18.38Q166.11-19.83 166.71-21.16 167.31-22.5 168.46-23.51 169.61-24.53 171.28-25.13 172.96-25.73 175.11-25.73L175.11-25.73Q177.61-25.73 179.59-24.94 181.58-24.15 183.03-22.78L183.03-22.78ZM199.25-25.73L199.25-25.73Q201.53-25.73 203.45-24.96 205.38-24.2 206.78-22.76 208.18-21.33 208.97-19.21 209.75-17.1 209.75-14.4L209.75-14.4Q209.75-13.35 209.53-13 209.3-12.65 208.68-12.65L208.68-12.65 191.83-12.65Q191.88-10.25 192.48-8.47 193.08-6.7 194.13-5.51 195.18-4.33 196.63-3.74 198.08-3.15 199.88-3.15L199.88-3.15Q201.55-3.15 202.77-3.54 203.98-3.93 204.85-4.38 205.73-4.83 206.32-5.21 206.9-5.6 207.33-5.6L207.33-5.6Q207.88-5.6 208.18-5.18L208.18-5.18 209.43-3.55Q208.6-2.55 207.45-1.81 206.3-1.07 204.99-0.6 203.68-0.13 202.28 0.11 200.88 0.35 199.5 0.35L199.5 0.35Q196.88 0.35 194.67-0.54 192.45-1.43 190.84-3.14 189.23-4.85 188.33-7.38 187.43-9.9 187.43-13.18L187.43-13.18Q187.43-15.83 188.24-18.13 189.05-20.43 190.58-22.11 192.1-23.8 194.3-24.76 196.5-25.73 199.25-25.73ZM199.35-22.45L199.35-22.45Q196.13-22.45 194.28-20.59 192.43-18.73 191.98-15.43L191.98-15.43 205.75-15.43Q205.75-16.98 205.33-18.26 204.9-19.55 204.08-20.49 203.25-21.43 202.07-21.94 200.88-22.45 199.35-22.45ZM225.45-25.73L225.45-25.73Q227.73-25.73 229.65-24.96 231.58-24.2 232.98-22.76 234.38-21.33 235.16-19.21 235.95-17.1 235.95-14.4L235.95-14.4Q235.95-13.35 235.73-13 235.5-12.65 234.88-12.65L234.88-12.65 218.03-12.65Q218.08-10.25 218.68-8.47 219.28-6.7 220.33-5.51 221.38-4.33 222.83-3.74 224.28-3.15 226.08-3.15L226.08-3.15Q227.75-3.15 228.96-3.54 230.18-3.93 231.05-4.38 231.93-4.83 232.51-5.21 233.1-5.6 233.53-5.6L233.53-5.6Q234.08-5.6 234.38-5.18L234.38-5.18 235.63-3.55Q234.8-2.55 233.65-1.81 232.5-1.07 231.19-0.6 229.88-0.13 228.48 0.11 227.08 0.35 225.7 0.35L225.7 0.35Q223.08 0.35 220.86-0.54 218.65-1.43 217.04-3.14 215.43-4.85 214.53-7.38 213.63-9.9 213.63-13.18L213.63-13.18Q213.63-15.83 214.44-18.13 215.25-20.43 216.78-22.11 218.3-23.8 220.5-24.76 222.7-25.73 225.45-25.73ZM225.55-22.45L225.55-22.45Q222.33-22.45 220.48-20.59 218.63-18.73 218.18-15.43L218.18-15.43 231.95-15.43Q231.95-16.98 231.53-18.26 231.1-19.55 230.28-20.49 229.45-21.43 228.26-21.94 227.08-22.45 225.55-22.45ZM246.07 0L241.62 0 241.62-25.33 244.27-25.33Q245.22-25.33 245.47-24.4L245.47-24.4 245.82-21.65Q247.47-23.48 249.51-24.6 251.55-25.73 254.22-25.73L254.22-25.73Q256.3-25.73 257.89-25.04 259.47-24.35 260.54-23.09 261.6-21.83 262.15-20.05 262.7-18.28 262.7-16.13L262.7-16.13 262.7 0 258.25 0 258.25-16.13Q258.25-19 256.94-20.59 255.62-22.18 252.92-22.18L252.92-22.18Q250.95-22.18 249.24-21.23 247.52-20.28 246.07-18.65L246.07-18.65 246.07 0ZM294.57-22.78L293.57-21.15Q293.27-20.6 292.64-20.6L292.64-20.6Q292.27-20.6 291.79-20.88 291.32-21.15 290.63-21.49 289.94-21.83 288.99-22.11 288.04-22.4 286.74-22.4L286.74-22.4Q285.62-22.4 284.72-22.11 283.82-21.83 283.18-21.33 282.54-20.83 282.21-20.16 281.87-19.5 281.87-18.73L281.87-18.73Q281.87-17.75 282.43-17.1 282.99-16.45 283.92-15.98 284.84-15.5 286.02-15.14 287.19-14.78 288.43-14.36 289.67-13.95 290.84-13.45 292.02-12.95 292.94-12.2 293.87-11.45 294.43-10.36 294.99-9.28 294.99-7.75L294.99-7.75Q294.99-6 294.37-4.51 293.74-3.03 292.52-1.94 291.29-0.85 289.52-0.23 287.74 0.4 285.42 0.4L285.42 0.4Q282.77 0.4 280.62-0.46 278.47-1.33 276.97-2.68L276.97-2.68 278.02-4.38Q278.22-4.7 278.49-4.88 278.77-5.05 279.22-5.05L279.22-5.05Q279.67-5.05 280.17-4.7 280.67-4.35 281.38-3.93 282.09-3.5 283.11-3.15 284.12-2.8 285.64-2.8L285.64-2.8Q286.94-2.8 287.92-3.14 288.89-3.48 289.54-4.05 290.19-4.63 290.51-5.38 290.82-6.13 290.82-6.98L290.82-6.98Q290.82-8.03 290.26-8.71 289.69-9.4 288.77-9.89 287.84-10.38 286.66-10.74 285.47-11.1 284.23-11.5 282.99-11.9 281.81-12.41 280.62-12.93 279.69-13.7 278.77-14.48 278.21-15.61 277.64-16.75 277.64-18.38L277.64-18.38Q277.64-19.83 278.24-21.16 278.84-22.5 279.99-23.51 281.14-24.53 282.82-25.13 284.49-25.73 286.64-25.73L286.64-25.73Q289.14-25.73 291.13-24.94 293.12-24.15 294.57-22.78L294.57-22.78ZM310.79-25.73L310.79-25.73Q313.07-25.73 314.99-24.96 316.92-24.2 318.32-22.76 319.72-21.33 320.5-19.21 321.29-17.1 321.29-14.4L321.29-14.4Q321.29-13.35 321.07-13 320.84-12.65 320.22-12.65L320.22-12.65 303.37-12.65Q303.42-10.25 304.02-8.47 304.62-6.7 305.67-5.51 306.72-4.33 308.17-3.74 309.62-3.15 311.42-3.15L311.42-3.15Q313.09-3.15 314.3-3.54 315.52-3.93 316.39-4.38 317.27-4.83 317.85-5.21 318.44-5.6 318.87-5.6L318.87-5.6Q319.42-5.6 319.72-5.18L319.72-5.18 320.97-3.55Q320.14-2.55 318.99-1.81 317.84-1.07 316.53-0.6 315.22-0.13 313.82 0.11 312.42 0.35 311.04 0.35L311.04 0.35Q308.42 0.35 306.2-0.54 303.99-1.43 302.38-3.14 300.77-4.85 299.87-7.38 298.97-9.9 298.97-13.18L298.97-13.18Q298.97-15.83 299.78-18.13 300.59-20.43 302.12-22.11 303.64-23.8 305.84-24.76 308.04-25.73 310.79-25.73ZM310.89-22.45L310.89-22.45Q307.67-22.45 305.82-20.59 303.97-18.73 303.52-15.43L303.52-15.43 317.29-15.43Q317.29-16.98 316.87-18.26 316.44-19.55 315.62-20.49 314.79-21.43 313.6-21.94 312.42-22.45 310.89-22.45ZM327.46-36.83L331.91-36.83 331.91 0 327.46 0 327.46-36.83ZM340.26-36.83L344.71-36.83 344.71 0 340.26 0 340.26-36.83ZM368.06-22.78L367.06-21.15Q366.76-20.6 366.13-20.6L366.13-20.6Q365.76-20.6 365.28-20.88 364.81-21.15 364.12-21.49 363.43-21.83 362.48-22.11 361.53-22.4 360.23-22.4L360.23-22.4Q359.11-22.4 358.21-22.11 357.31-21.83 356.67-21.33 356.03-20.83 355.7-20.16 355.36-19.5 355.36-18.73L355.36-18.73Q355.36-17.75 355.92-17.1 356.48-16.45 357.41-15.98 358.33-15.5 359.51-15.14 360.68-14.78 361.92-14.36 363.16-13.95 364.33-13.45 365.51-12.95 366.43-12.2 367.36-11.45 367.92-10.36 368.48-9.28 368.48-7.75L368.48-7.75Q368.48-6 367.86-4.51 367.23-3.03 366.01-1.94 364.78-0.85 363.01-0.23 361.23 0.4 358.91 0.4L358.91 0.4Q356.26 0.4 354.11-0.46 351.96-1.33 350.46-2.68L350.46-2.68 351.51-4.38Q351.71-4.7 351.98-4.88 352.26-5.05 352.71-5.05L352.71-5.05Q353.16-5.05 353.66-4.7 354.16-4.35 354.87-3.93 355.58-3.5 356.6-3.15 357.61-2.8 359.13-2.8L359.13-2.8Q360.43-2.8 361.41-3.14 362.38-3.48 363.03-4.05 363.68-4.63 364-5.38 364.31-6.13 364.31-6.98L364.31-6.98Q364.31-8.03 363.75-8.71 363.18-9.4 362.26-9.89 361.33-10.38 360.15-10.74 358.96-11.1 357.72-11.5 356.48-11.9 355.3-12.41 354.11-12.93 353.18-13.7 352.26-14.48 351.7-15.61 351.13-16.75 351.13-18.38L351.13-18.38Q351.13-19.83 351.73-21.16 352.33-22.5 353.48-23.51 354.63-24.53 356.31-25.13 357.98-25.73 360.13-25.73L360.13-25.73Q362.63-25.73 364.62-24.94 366.61-24.15 368.06-22.78L368.06-22.78Z" opacity="1" transform="matrix(1,0,0,1,0,0)" fill="#d94e28" class="slogan-text-1" data-fill-palette-color="secondary" id="text-1"></path></svg></g></svg></g></svg></g></svg></g><g transform="matrix(1,0,0,1,418.47690087489366,0)"><svg viewBox="0 0 185.26187382694906 198.56379794972125" height="198.56379794972125" width="185.26187382694906"><g><svg xmlns="http://www.w3.org/2000/svg" xmlns:xlink="http://www.w3.org/1999/xlink" version="1.0" x="0" y="0" viewBox="9.0910901 4.8812084 84.260007 90.30993079999999" enable-background="new 0 0 100 100" xml:space="preserve" height="198.56379794972125" width="185.26187382694906" class="icon-icon-0" data-fill-palette-color="accent" id="icon-0"><path d="M66.268 58.43V92.081c0 1.506 1.35 3.11 2.852 3.11h13.698c1.505 0 2.451-1.602 2.452-3.11V36.538c-1.258 2.942-2.741 5.686-4.451 8.214C77.053 50.318 72.157 54.916 66.268 58.43z" fill="#f9744c" data-fill-palette-color="accent"></path><path d="M10.782 92.081c0 1.506 1.264 3.11 2.768 3.11h13.699c1.501 0 2.535-1.602 2.535-3.11V66.923c-8.38-0.093-15.351-1.198-19.002-1.909V92.081z" fill="#f9744c" data-fill-palette-color="accent"></path><path d="M38.905 66.594V92.081c0 1.506 0.925 3.11 2.432 3.11h13.694c1.508 0 2.876-1.604 2.876-3.11V62.447c-3.07 1.165-6.336 2.11-9.778 2.822C45.187 65.877 42.103 66.319 38.905 66.594z" fill="#f9744c" data-fill-palette-color="accent"></path><path d="M54.666 40.262c0.143-0.184 0.283-0.369 0.42-0.553-0.019 0-0.037-0.004-0.055-0.004H41.338c-1.508 0-2.433 1.572-2.433 3.076v8.968c0.552-0.221 1.097-0.447 1.63-0.684C46.353 48.471 51.107 44.837 54.666 40.262z" fill="#f9744c" data-fill-palette-color="accent"></path><path d="M85.134 21.104h0.103 8.114L74.818 4.881l-18.533 16.223h9.963c-0.134 2.969-1.133 12.907-8.341 22.034-4.053 5.132-10.07 10.007-19.002 13.243-5.765 2.089-12.746 3.495-21.196 3.846-1.367 0.057-2.772 0.087-4.217 0.087-0.184 0-0.37-0.002-0.555-0.003-1.253-0.007-2.532-0.033-3.846-0.084 0 0 1.029 0.257 2.848 0.603 3.531 0.67 10.04 1.672 17.79 1.766 0.391 0.005 0.785 0.007 1.181 0.008 2.563 0 5.248-0.103 7.995-0.352 6.248-0.565 12.817-1.884 19.002-4.457 2.896-1.205 5.706-2.685 8.361-4.491C75.373 47.108 82.636 37.07 85.134 21.104z" fill="#f9744c" data-fill-palette-color="accent"></path></svg></g></svg></g></svg></g><defs></defs></svg><rect width="395.52" height="130.082672599352" fill="none" stroke="none" visibility="hidden"></rect></g></svg></g></svg>